<svg xmlns="http://www.w3.org/2000/svg" xmlns:xlink="http://www.w3.org/1999/xlink" width="1080" zoomAndPan="magnify" viewBox="0 0 810 1012.49997" height="1350" preserveAspectRatio="xMidYMid meet" version="1.0"><defs><clipPath id="3c2cbb5b55"><path d="M 0.199219 496 L 809.800781 496 L 809.800781 978 L 0.199219 978 Z M 0.199219 496 " clip-rule="nonzero"/></clipPath><clipPath id="6f47535fcd"><path d="M 168 22 L 619 22 L 619 525 L 168 525 Z M 168 22 " clip-rule="nonzero"/></clipPath></defs><g clip-path="url(#3c2cbb5b55)"><path fill="#43553e" d="M 673.519531 528.5 C 619.988281 490.390625 553.304688 486.839844 495.796875 516.421875 C 436.421875 548.199219 358.667969 549.582031 298.289062 519.796875 C 235.40625 490.007812 163.144531 501.695312 109.808594 550.03125 C 43.277344 610.332031 0.59375 703.496094 0.59375 808.070312 C 0.59375 989.941406 129.621094 977.503906 288.78125 977.503906 L 521.273438 977.6875 C 680.445312 977.6875 809.480469 989.941406 809.480469 808.070312 C 809.480469 690.089844 755.15625 586.625 673.519531 528.5 Z M 673.519531 528.5 " fill-opacity="1" fill-rule="nonzero"/></g><g clip-path="url(#6f47535fcd)"><path fill="#43553e" d="M 393.433594 524.054688 C 517.636719 524.054688 618.683594 411.441406 618.683594 273.015625 C 618.683594 134.589844 517.644531 21.988281 393.433594 21.988281 C 269.222656 21.988281 168.175781 134.601562 168.175781 273.015625 C 168.175781 411.441406 269.234375 524.054688 393.433594 524.054688 Z M 393.433594 524.054688 " fill-opacity="1" fill-rule="nonzero"/></g></svg>